<svg xmlns="http://www.w3.org/2000/svg" xmlns:xlink="http://www.w3.org/1999/xlink" viewBox="0 0 90.31 90.31">
  <defs>
    <linearGradient id="a">
      <stop offset="0" style="stop-color:#a5b4fc;stop-opacity:1"/>
      <stop offset="1" style="stop-color:#818cf8;stop-opacity:1"/>
    </linearGradient>
    <linearGradient xlink:href="#a" id="b" x1="-41.38" x2="42.18" y1="-22.1" y2="61.45" gradientTransform="translate(-122.18 -6.2) scale(1.31519)" gradientUnits="userSpaceOnUse"/>
  </defs>
  <path d="M-142.85-35.27h42.39A33.68 33.68 0 0 1-66.71-1.52v42.39a33.68 33.68 0 0 1-33.75 33.75h-42.39a33.68 33.68 0 0 1-33.75-33.75V-1.52a33.68 33.68 0 0 1 33.75-33.75z" style="fill:url(#b);stroke-width:1.21693;stroke-linecap:round" transform="translate(145.14 28.98) scale(.82184)"/>
  <path d="M-121.66-19.05a38.79 38.79 0 0 0-38.72 38.73 38.8 38.8 0 0 0 38.72 38.72 38.8 38.8 0 0 0 38.73-38.72 38.79 38.79 0 0 0-38.73-38.73zm0 8.47A30.2 30.2 0 0 1-91.4 19.68a30.2 30.2 0 0 1-30.26 30.26 30.2 30.2 0 0 1-30.26-30.26 30.2 30.2 0 0 1 30.26-30.26z" style="color:#000;fill:#fff;stroke-width:1.31519;stroke-linecap:round;-inkscape-stroke:none" transform="translate(145.14 28.98) scale(.82184)"/>
  <path d="M-121.66-2.12a4.23 4.23 0 0 0-4.23 4.23v17.57a4.23 4.23 0 0 0 4.23 4.23h13.94a4.23 4.23 0 0 0 4.23-4.23 4.23 4.23 0 0 0-4.23-4.24h-9.7V2.11a4.23 4.23 0 0 0-4.24-4.23z" style="color:#000;fill:#fff;stroke-width:1.31519;stroke-linecap:round;stroke-linejoin:round;-inkscape-stroke:none" transform="translate(145.14 28.98) scale(.82184)"/>
</svg>
